<svg xmlns="http://www.w3.org/2000/svg" width="120" height="120" viewBox="0 0 120 120"><g transform="translate(-369.102 -2591.381)"><g transform="translate(7506 12149.279)"><circle cx="60" cy="60" r="60" transform="translate(-7136.898 -9557.898)" fill="#bfd4ef" opacity="0.45"/><circle cx="48" cy="48" r="48" transform="translate(-7124.898 -9545.898)" fill="#fbfcfd"/></g><g transform="translate(399.244 2628.588)"><g transform="translate(0 0)"><path d="M54.727,88.943H51.913v-2.45a3.017,3.017,0,0,0-.306-1.307V78.47A.731.731,0,0,0,51.437,78l-4.6-5.456a2.692,2.692,0,0,0-2.074-.969h-7.91v-4.34a2.074,2.074,0,0,0-2.071-2.071H9.083a2.074,2.074,0,0,0-2.071,2.071V88.227a1.557,1.557,0,0,0-.985,1.445V91.1a1.559,1.559,0,0,0,1.558,1.558h3.833a4.679,4.679,0,0,0,8.805,0H22.86v.427a.728.728,0,1,0,1.456,0V86.492a1.6,1.6,0,0,1,1.6-1.6H48.861a1.6,1.6,0,0,1,1.6,1.6V98.754H24.316l-.041-.435a.728.728,0,0,0-1.456,0l.041,1.164c0,.005,0,.009,0,.014V104.2a3.463,3.463,0,0,0,3.459,3.46h2.661a3.813,3.813,0,0,0,7.486,0h5.552a3.813,3.813,0,0,0,7.486,0H54.6a3.813,3.813,0,0,0,7.486,0h.2a3.464,3.464,0,0,0,3.46-3.46V99.9A11.013,11.013,0,0,0,54.727,88.943Zm-4.656-10.3H41.748a.09.09,0,0,1-.09-.09v-3.1a.091.091,0,0,1,.09-.091h5.56Zm-41.6,3.108H9.854v3.09H8.468Zm1.385-1.456H8.468V78.636H9.854ZM7.585,91.2a.1.1,0,0,1-.1-.1V89.672a.1.1,0,0,1,.1-.1h3.8a4.66,4.66,0,0,0-.248,1.492c0,.046.005.09.007.135Zm8.235,3.1a3.23,3.23,0,1,1,3.23-3.23A3.234,3.234,0,0,1,15.82,94.293Zm4.68-3.1c0-.045.007-.089.007-.135a4.66,4.66,0,0,0-.248-1.492h2.6V91.2Zm2.36-4.706v1.623h-3.4a4.677,4.677,0,0,0-7.277,0H8.468V86.3h1.584a1.259,1.259,0,0,0,1.258-1.258v-6.6a1.259,1.259,0,0,0-1.258-1.258H8.468V67.236a.616.616,0,0,1,.615-.615h25.7a.616.616,0,0,1,.615.615v16.2H25.918a3.059,3.059,0,0,0-3.059,3.053Zm26-3.053h-12V73.032h7.91a1.242,1.242,0,0,1,.957.447l.357.424H41.748A1.549,1.549,0,0,0,40.2,75.451v3.1A1.549,1.549,0,0,0,41.748,80.1h8.4v3.639A3.019,3.019,0,0,0,48.861,83.439ZM32.724,109.3a2.36,2.36,0,1,1,2.36-2.36A2.361,2.361,0,0,1,32.724,109.3Zm13.038,0a2.36,2.36,0,1,1,2.36-2.36A2.361,2.361,0,0,1,45.762,109.3Zm0-6.176a3.819,3.819,0,0,0-3.741,3.088H36.469a3.813,3.813,0,0,0-7.486,0H26.322a2.005,2.005,0,0,1-2-2v-3.992h26.14v6h-.952a3.821,3.821,0,0,0-3.745-3.088Zm12.58,6.176a2.36,2.36,0,1,1,2.36-2.36A2.361,2.361,0,0,1,58.342,109.3Zm5.944-8.081h-1.74a.728.728,0,1,0,0,1.456h1.74V104.2a2.006,2.006,0,0,1-2,2h-.2a3.813,3.813,0,0,0-7.486,0H51.915V90.4h2.812a9.554,9.554,0,0,1,9.558,9.5v1.313Z" transform="translate(-6.027 -65.164)" fill="#4c77ae"/><path d="M402.467,287.154h-.8a.728.728,0,0,0-.728.728V295.2a.728.728,0,0,0,.728.728h8.347a.729.729,0,0,0,.728-.747A8.267,8.267,0,0,0,402.467,287.154Zm-.075,7.314V288.61h.075a6.821,6.821,0,0,1,6.755,5.857Z" transform="translate(-353.766 -260.639)" fill="#4c77ae"/></g></g></g></svg>