<svg xmlns="http://www.w3.org/2000/svg" width="120" height="120" viewBox="0 0 120 120"><g transform="translate(-684.102 -2591.381)"><g transform="translate(7821 12149.279)"><circle cx="60" cy="60" r="60" transform="translate(-7136.898 -9557.898)" fill="#bfd4ef" opacity="0.45"/><circle cx="48" cy="48" r="48" transform="translate(-7124.898 -9545.898)" fill="#fbfcfd"/></g><g transform="translate(713.508 2621.167)"><g transform="translate(24.015 12.625)"><path d="M216.427,141.624h-7.939a3.833,3.833,0,0,0-2.817-2.817v-10.6a.9.9,0,1,0-1.793,0v10.6a3.821,3.821,0,1,0,4.611,4.611h7.939a.9.9,0,1,0,0-1.793Zm-11.653,2.925a2.028,2.028,0,1,1,2.028-2.028A2.03,2.03,0,0,1,204.775,144.548Z" transform="translate(-200.953 -127.309)" fill="#4c77ae"/></g><g transform="translate(13.003 25.08)"><path d="M115.562,231.53H110.3a1.5,1.5,0,0,0-1.494,1.494v2.524a1.5,1.5,0,0,0,1.494,1.494h5.265a1.5,1.5,0,0,0,1.494-1.494v-2.524A1.5,1.5,0,0,0,115.562,231.53Zm-.3,3.72H110.6v-1.926h4.667Z" transform="translate(-108.802 -231.53)" fill="#4c77ae"/></g><g transform="translate(0 0)"><path d="M54.868,56.167A27.84,27.84,0,1,0,27.837,77.338h0a28.015,28.015,0,0,0,5.812-.608.9.9,0,0,0-.373-1.754,26.215,26.215,0,0,1-5.439.569h0a26.027,26.027,0,1,1,25.348-20.05,11.3,11.3,0,0,0-3.337-.5q-.418,0-.829.03a21.985,21.985,0,0,0-.038-11.205.9.9,0,0,0-1.732.465A20.11,20.11,0,0,1,47.91,48.6H46.239a.9.9,0,0,0,0,1.793h1.674a19.977,19.977,0,0,1-.846,4.94,11.36,11.36,0,0,0-8.559,11c0,.063,0,.125,0,.188a19.965,19.965,0,0,1-9.777,3.056V67.9a.9.9,0,0,0-1.793,0v1.673a20.019,20.019,0,0,1-12.658-5.252l1.177-1.176A.9.9,0,1,0,14.19,61.88l-1.177,1.177A20.018,20.018,0,0,1,7.743,49.681H9.191a.9.9,0,0,0,0-1.793H7.805a20.024,20.024,0,0,1,5.208-11.941l1.177,1.177a.9.9,0,1,0,1.268-1.268l-1.177-1.176A20.02,20.02,0,0,1,26.94,29.427V31.1a.9.9,0,0,0,1.793,0V29.428A19.986,19.986,0,0,1,41.4,34.673l-1.182,1.182a.9.9,0,0,0,1.268,1.268l1.181-1.181a20.154,20.154,0,0,1,2.46,3.307.9.9,0,1,0,1.542-.916A21.891,21.891,0,1,0,27.837,71.391a21.75,21.75,0,0,0,10.878-2.9,11.276,11.276,0,0,0,1.553,3.9q-1.092.593-2.253,1.088a.9.9,0,1,0,.7,1.651,28.012,28.012,0,0,0,2.641-1.291,11.331,11.331,0,0,0,14.717,1.972.9.9,0,1,0-.986-1.5A9.54,9.54,0,1,1,58.121,71.1a.9.9,0,0,0,1.553.9,11.342,11.342,0,0,0-4.806-15.829Z" transform="translate(0 -21.665)" fill="#4c77ae"/></g><g transform="translate(42.239 39.559)"><path d="M367.4,353.479a2.776,2.776,0,0,0-3.926.047l-3.752,3.844-1.515-1.546a2.776,2.776,0,0,0-3.965,3.887l3.063,3.125a3.409,3.409,0,0,0,2.421,1.017h0a3.411,3.411,0,0,0,2.422-1.022l5.3-5.426A2.78,2.78,0,0,0,367.4,353.479Zm-1.236,2.673-5.3,5.426a1.606,1.606,0,0,1-1.141.482h0a1.605,1.605,0,0,1-1.14-.479l-3.063-3.125a.983.983,0,1,1,1.4-1.376l2.157,2.2a.9.9,0,0,0,.64.269h0a.9.9,0,0,0,.641-.27l4.392-4.5a.983.983,0,0,1,1.407,1.374Z" transform="translate(-353.447 -352.689)" fill="#4c77ae"/></g></g></g></svg>