<svg xmlns="http://www.w3.org/2000/svg" width="120" height="120" viewBox="0 0 120 120"><g transform="translate(6608 9308.833)"><g transform="translate(528.898 249.065)"><circle cx="60" cy="60" r="60" transform="translate(-7136.898 -9557.898)" fill="#bfd4ef" opacity="0.45"/><circle cx="48" cy="48" r="48" transform="translate(-7124.898 -9545.898)" fill="#fbfcfd"/></g><path d="M21.744,72.209A1.149,1.149,0,0,0,22.7,71.7L27.3,64.8a1.149,1.149,0,0,0-.956-1.786H25.216a25.278,25.278,0,0,1,48.015-9.839,1.149,1.149,0,0,0,1.034.649h5.02a1.149,1.149,0,0,0,1.067-1.575A32.173,32.173,0,0,0,18.318,63.018H17.149a1.149,1.149,0,0,0-.956,1.786l4.6,6.893A1.149,1.149,0,0,0,21.744,72.209Zm-2.3-6.893A1.149,1.149,0,0,0,20.6,64.167,29.876,29.876,0,0,1,77.539,51.53H74.976A27.576,27.576,0,0,0,22.893,64.167a1.149,1.149,0,0,0,1.149,1.149h.151l-2.448,3.673L19.3,65.316ZM84.737,63.53l-4.6-6.893a1.149,1.149,0,0,0-1.912,0l-4.6,6.893a1.149,1.149,0,0,0,.956,1.786h1.123A25.278,25.278,0,0,1,27.7,75.156a1.149,1.149,0,0,0-1.034-.649h-5.02a1.149,1.149,0,0,0-1.067,1.575A32.173,32.173,0,0,0,82.612,65.316h1.169a1.149,1.149,0,0,0,.956-1.786Zm-3.254-.511a1.149,1.149,0,0,0-1.149,1.149A29.876,29.876,0,0,1,23.391,76.8h2.563A27.575,27.575,0,0,0,78.037,64.167a1.149,1.149,0,0,0-1.149-1.149h-.151l2.448-3.673,2.448,3.673ZM70,68.763a1.149,1.149,0,0,0,1.149-1.149V60.721A1.149,1.149,0,0,0,70,59.572H65.882a15.936,15.936,0,0,0-1.366-3.236l2.845-2.845a1.149,1.149,0,0,0,0-1.625l-4.6-4.6a1.149,1.149,0,0,0-1.625,0L58.3,50.116a15.945,15.945,0,0,0-3.236-1.366V44.637a1.149,1.149,0,0,0-1.149-1.149H47.018a1.149,1.149,0,0,0-1.149,1.149v4.114a15.944,15.944,0,0,0-3.236,1.366l-2.845-2.845a1.149,1.149,0,0,0-1.625,0l-4.6,4.6a1.149,1.149,0,0,0,0,1.625l2.845,2.845a15.936,15.936,0,0,0-1.366,3.236H30.935a1.149,1.149,0,0,0-1.149,1.149v6.893a1.149,1.149,0,0,0,1.149,1.149h4.113A15.936,15.936,0,0,0,36.414,72l-2.845,2.845a1.149,1.149,0,0,0,0,1.625l4.6,4.6a1.149,1.149,0,0,0,1.625,0l2.845-2.845a15.944,15.944,0,0,0,3.236,1.366V83.7a1.149,1.149,0,0,0,1.149,1.149h6.893A1.149,1.149,0,0,0,55.06,83.7V79.584A15.945,15.945,0,0,0,58.3,78.218l2.845,2.845a1.149,1.149,0,0,0,1.625,0l4.6-4.6a1.149,1.149,0,0,0,0-1.625L64.516,72a15.936,15.936,0,0,0,1.366-3.236H70ZM63.881,67.35A13.67,13.67,0,0,1,62.1,71.561a1.149,1.149,0,0,0,.157,1.43l2.665,2.665-2.971,2.971-2.665-2.665a1.15,1.15,0,0,0-1.43-.157,13.672,13.672,0,0,1-4.211,1.779,1.149,1.149,0,0,0-.885,1.118v3.847h-4.6V78.7a1.149,1.149,0,0,0-.885-1.118A13.672,13.672,0,0,1,43.071,75.8a1.149,1.149,0,0,0-1.43.157l-2.665,2.665-2.971-2.971,2.665-2.665a1.149,1.149,0,0,0,.157-1.43,13.67,13.67,0,0,1-1.779-4.211,1.149,1.149,0,0,0-1.118-.885H32.083v-4.6H35.93a1.149,1.149,0,0,0,1.118-.885,13.67,13.67,0,0,1,1.779-4.211,1.149,1.149,0,0,0-.157-1.43l-2.665-2.665,2.971-2.971,2.665,2.665a1.15,1.15,0,0,0,1.43.157,13.673,13.673,0,0,1,4.211-1.779,1.149,1.149,0,0,0,.885-1.118V45.786h4.6v3.847a1.149,1.149,0,0,0,.885,1.118,13.673,13.673,0,0,1,4.211,1.779,1.149,1.149,0,0,0,1.43-.157l2.665-2.665,2.971,2.971-2.665,2.665a1.149,1.149,0,0,0-.157,1.43,13.671,13.671,0,0,1,1.779,4.211A1.149,1.149,0,0,0,65,61.87h3.847v4.6H65A1.149,1.149,0,0,0,63.881,67.35ZM50.465,52.679A11.488,11.488,0,1,0,61.953,64.167,11.5,11.5,0,0,0,50.465,52.679Zm0,20.679a9.191,9.191,0,1,1,9.191-9.191A9.2,9.2,0,0,1,50.465,73.358Zm0-16.084a6.893,6.893,0,1,0,6.893,6.893A6.9,6.9,0,0,0,50.465,57.274Zm0,11.488a4.6,4.6,0,1,1,4.6-4.6A4.6,4.6,0,0,1,50.465,68.763Z" transform="translate(-6597.965 -9313.002)" fill="#4c77ae"/></g></svg>