<svg xmlns="http://www.w3.org/2000/svg" width="120" height="120" viewBox="0 0 120 120"><g transform="translate(6923 9308.834)"><g transform="translate(213.898 249.065)"><circle cx="60" cy="60" r="60" transform="translate(-7136.898 -9557.898)" fill="#bfd4ef" opacity="0.45"/><circle cx="48" cy="48" r="48" transform="translate(-7124.898 -9545.898)" fill="#fbfcfd"/></g><path d="M73.692,55.516A10.815,10.815,0,1,0,62.877,66.331,10.828,10.828,0,0,0,73.692,55.516ZM62.877,64.343A8.827,8.827,0,1,1,71.7,55.516,8.838,8.838,0,0,1,62.877,64.343ZM80.765,75.357l-5.182-8.976c.335-.169.679-.324,1.018-.476,1.419-.637,3.028-1.358,3.767-3.144s.112-3.44-.443-4.9a10.821,10.821,0,0,1-.7-2.347,11.008,11.008,0,0,1,.7-2.358c.553-1.454,1.181-3.1.441-4.887s-2.353-2.511-3.777-3.15a10.822,10.822,0,0,1-2.155-1.164,11.007,11.007,0,0,1-1.17-2.164c-.636-1.419-1.358-3.028-3.144-3.768s-3.44-.112-4.9.443c-.46.175-.906.344-1.353.477v-10.3a.994.994,0,0,0-.789-.973l-19.441-4.1a1,1,0,0,0-.41,0l-19.441,4.1a.994.994,0,0,0-.789.973V47.618a23.181,23.181,0,0,0,6.117,15.24,24.513,24.513,0,0,0,14.165,8.059,1,1,0,0,0,.154.012.982.982,0,0,0,.154-.012A21.491,21.491,0,0,0,48.312,69.6l-3.323,5.756a.994.994,0,0,0,.916,1.489l4.683-.263L52.7,80.771a.994.994,0,0,0,.859.546h.028a.994.994,0,0,0,.861-.5l4.445-7.7a16.741,16.741,0,0,0,1.634-.557,10.811,10.811,0,0,1,2.347-.7,11,11,0,0,1,2.358.7,16.707,16.707,0,0,0,1.622.553l4.446,7.7a.994.994,0,0,0,.861.5h.028a.994.994,0,0,0,.859-.546l2.114-4.188,4.683.263a.994.994,0,0,0,.916-1.49ZM43.436,68.928c-10.016-1.654-18.448-11.376-18.448-21.31V29.455l18.448-3.888,18.447,3.888v9.49c-.461-.137-.917-.309-1.364-.479a11.821,11.821,0,0,0-2.364-.712V33.285a.994.994,0,0,0-.789-.973L43.64,29.419a1,1,0,0,0-.41,0L29.5,32.312a.994.994,0,0,0-.789.973V47.618a17.434,17.434,0,0,0,4.376,11.1,19.175,19.175,0,0,0,10.128,6.374,1,1,0,0,0,.433,0,16.328,16.328,0,0,0,2.719-.871,9.119,9.119,0,0,0,2.792,1.691c.346.155.684.308,1.008.471l-.1.171a20.348,20.348,0,0,1-6.637,2.376Zm2.394-15.76a10.813,10.813,0,0,1,.7,2.347,11.012,11.012,0,0,1-.7,2.358c-.528,1.386-1.121,2.948-.535,4.639a14.278,14.278,0,0,1-1.857.588C36.511,61.436,30.7,54.4,30.7,47.618V34.091l12.732-2.683,12.732,2.683v3.751a4.462,4.462,0,0,0-.536.183c-1.788.74-2.511,2.354-3.15,3.777a10.813,10.813,0,0,1-1.164,2.155,11,11,0,0,1-2.164,1.17c-1.419.637-3.028,1.358-3.767,3.144S45.274,51.711,45.829,53.169Zm7.82,25.065L52.07,75.106a.994.994,0,0,0-.943-.544l-3.5.2,4.087-7.079a15.95,15.95,0,0,1,.771,1.56c.637,1.419,1.358,3.028,3.144,3.767a4.4,4.4,0,0,0,.883.262Zm9.341-8.36a.99.99,0,0,0-.225,0,12.138,12.138,0,0,0-2.941.832c-1.471.56-2.424.882-3.43.465s-1.45-1.314-2.091-2.744a12.162,12.162,0,0,0-1.5-2.677,1,1,0,0,0-.159-.159A12.138,12.138,0,0,0,49.977,64.1c-1.436-.644-2.337-1.09-2.754-2.1s-.1-1.954.462-3.419a12.158,12.158,0,0,0,.834-2.952.99.99,0,0,0,0-.225,12.138,12.138,0,0,0-.832-2.941c-.56-1.471-.882-2.423-.465-3.43s1.314-1.45,2.745-2.091a12.162,12.162,0,0,0,2.677-1.5.986.986,0,0,0,.159-.159A12.145,12.145,0,0,0,54.3,42.616c.644-1.436,1.09-2.337,2.1-2.754a2.445,2.445,0,0,1,.955-.19,7.374,7.374,0,0,1,2.464.652,12.157,12.157,0,0,0,2.952.834.991.991,0,0,0,.225,0,12.137,12.137,0,0,0,2.941-.832c1.471-.56,2.424-.882,3.43-.465s1.45,1.314,2.091,2.745a12.157,12.157,0,0,0,1.5,2.677.992.992,0,0,0,.159.159,12.142,12.142,0,0,0,2.668,1.492c1.436.644,2.337,1.09,2.754,2.1s.1,1.954-.462,3.419a12.159,12.159,0,0,0-.834,2.952.991.991,0,0,0,0,.225,12.136,12.136,0,0,0,.832,2.941c.56,1.471.882,2.424.465,3.43s-1.314,1.449-2.744,2.091a12.17,12.17,0,0,0-2.678,1.5.991.991,0,0,0-.159.159,12.144,12.144,0,0,0-1.492,2.668c-.644,1.436-1.09,2.337-2.1,2.754s-1.954.1-3.419-.462a12.152,12.152,0,0,0-2.952-.834Zm11.637,4.688a.994.994,0,0,0-.943.544L72.1,78.233l-2.866-4.964a4.408,4.408,0,0,0,.883-.263c1.788-.74,2.511-2.354,3.15-3.777a15.952,15.952,0,0,1,.765-1.551l4.087,7.08Zm-6.17-23a.994.994,0,0,1,0,1.406l-6.5,6.5a.994.994,0,0,1-1.406,0L57.3,56.218A.994.994,0,1,1,58.7,54.813l2.548,2.548,5.8-5.8a.994.994,0,0,1,1.406,0Z" transform="translate(-6914.449 -9301.271)" fill="#4c77ae"/></g></svg>