<svg xmlns="http://www.w3.org/2000/svg" width="120" height="120" viewBox="0 0 120 120"><g transform="translate(6293 9301.833)"><g transform="translate(843.898 256.065)"><circle cx="60" cy="60" r="60" transform="translate(-7136.898 -9557.898)" fill="#bfd4ef" opacity="0.45"/><circle cx="48" cy="48" r="48" transform="translate(-7124.898 -9545.898)" fill="#fbfcfd"/></g><g transform="translate(-6264.807 -9268.688)"><path d="M62.681,165.02H58.674a31.567,31.567,0,0,0-2.13-4.795,1.959,1.959,0,0,0-3.422,0,29.12,29.12,0,0,0-1.445,3,20.352,20.352,0,0,0-1.054-2.212,1.644,1.644,0,0,0-2.871,0c-.305.546-.595,1.137-.868,1.767a14.874,14.874,0,0,0-1.112-2.621,1.37,1.37,0,0,0-2.394,0,18.054,18.054,0,0,0-1.72,4.859h-19.7a18.052,18.052,0,0,0-1.72-4.858,1.37,1.37,0,0,0-2.394,0,14.879,14.879,0,0,0-1.113,2.621c-.274-.629-.563-1.22-.868-1.767a1.644,1.644,0,0,0-2.871,0,20.339,20.339,0,0,0-1.054,2.212,29.134,29.134,0,0,0-1.445-3,1.959,1.959,0,0,0-3.422,0,31.92,31.92,0,0,0-2.135,4.795h-4a.932.932,0,0,0,0,1.864H4.314a73.81,73.81,0,0,0-2.865,19.539,1.96,1.96,0,0,0,1.958,2.006H6.014v4.592a.932.932,0,0,0,.932.932h3.67a.932.932,0,0,0,.932-.932v-4.592h2.606a1.959,1.959,0,0,0,1.958-2.006c-.044-1.855-.143-3.674-.291-5.446h2.327a1.643,1.643,0,0,0,1.642-1.682,60.936,60.936,0,0,0-.467-6.288h2.012a1.378,1.378,0,0,0,.981-.414,1.359,1.359,0,0,0,.389-.99,37.045,37.045,0,0,0-.4-4.719h6.632l-13.48,29.9a.932.932,0,1,0,1.7.766l13.825-30.667h1.661L46.462,197.55a.932.932,0,1,0,1.7-.766l-13.48-29.9h6.632a37.009,37.009,0,0,0-.4,4.718,1.36,1.36,0,0,0,.389.991,1.378,1.378,0,0,0,.981.414h2.012a60.883,60.883,0,0,0-.467,6.287,1.643,1.643,0,0,0,1.642,1.683h2.327c-.149,1.772-.248,3.591-.291,5.446a1.959,1.959,0,0,0,1.958,2.006h2.606v4.592a.932.932,0,0,0,.932.932h3.67a.932.932,0,0,0,.932-.932v-4.592h2.606a1.96,1.96,0,0,0,1.958-2.006,82.926,82.926,0,0,0-1.254-12.778.932.932,0,0,0-1.834.333A81.039,81.039,0,0,1,60.3,186.466a.093.093,0,0,1-.027.07.091.091,0,0,1-.068.029H49.46a.091.091,0,0,1-.068-.029.093.093,0,0,1-.027-.07c.242-10.262,2.255-19.732,5.384-25.333a.1.1,0,0,1,.168,0,30.655,30.655,0,0,1,2.2,5.089l.006.019q.556,1.642,1.032,3.5a.932.932,0,0,0,1.806-.462q-.318-1.243-.673-2.4h3.391a.932.932,0,0,0,0-1.864Zm-53,27.069H7.877v-3.66H9.684Zm4.537-5.552a.091.091,0,0,1-.068.029H3.407a.091.091,0,0,1-.068-.029.093.093,0,0,1-.027-.07C3.555,176.2,5.567,166.734,8.7,161.134a.1.1,0,0,1,.168,0c3.129,5.6,5.141,15.071,5.384,25.333a.093.093,0,0,1-.027.07Zm1.422-7.423a63.739,63.739,0,0,0-2.7-13.182,22.726,22.726,0,0,1,1.484-3.652c2.013,3.836,3.31,10.069,3.5,16.834Zm3.407-7.97a41.96,41.96,0,0,0-1.2-5.265,19.268,19.268,0,0,1,1.188-3.941,26.39,26.39,0,0,1,1.787,9.206H19.05Zm36.686,17.286v3.66H53.93v-3.66ZM42.787,171.142a26.386,26.386,0,0,1,1.787-9.206,19.261,19.261,0,0,1,1.188,3.941,41.961,41.961,0,0,0-1.2,5.265Zm2.905,7.97c.185-6.764,1.482-13,3.5-16.834a22.719,22.719,0,0,1,1.484,3.652,63.721,63.721,0,0,0-2.7,13.182Z" transform="translate(0 -144.389)" fill="#4c77ae"/><path d="M249.432,239.853a.932.932,0,0,0-.932.932v1.543a.932.932,0,0,0,1.864,0v-1.543A.932.932,0,0,0,249.432,239.853Z" transform="translate(-217.625 -215.004)" fill="#4c77ae"/><path d="M249.432,289.1a.932.932,0,0,0-.932.932v2.756a.932.932,0,0,0,1.864,0v-2.756A.932.932,0,0,0,249.432,289.1Z" transform="translate(-217.625 -258.131)" fill="#4c77ae"/><path d="M249.432,349.366a.932.932,0,0,0-.932.932v3.72a.932.932,0,0,0,1.864,0V350.3A.932.932,0,0,0,249.432,349.366Z" transform="translate(-217.625 -310.91)" fill="#4c77ae"/><path d="M249.432,422.307a.932.932,0,0,0-.932.932v4.329a.932.932,0,1,0,1.864,0v-4.329A.932.932,0,0,0,249.432,422.307Z" transform="translate(-217.625 -374.789)" fill="#4c77ae"/><path d="M44.594,77.849H61.25a1.84,1.84,0,0,0,1.72-2.491,4.14,4.14,0,0,0-3.856-2.737,6.751,6.751,0,0,0-5.653-3.263,6.3,6.3,0,0,0-2.493.514.932.932,0,1,0,.734,1.713,4.44,4.44,0,0,1,1.759-.363,4.906,4.906,0,0,1,4.314,2.8.932.932,0,0,0,.973.487,2.207,2.207,0,0,1,.347-.028,2.289,2.289,0,0,1,2.121,1.5H48.509a6.306,6.306,0,0,1,.558-1.807.932.932,0,0,0-1.675-.818,8.214,8.214,0,0,0-.766,2.624H44.594a.932.932,0,0,0,0,1.864Z" transform="translate(-38.237 -65.692)" fill="#4c77ae"/><path d="M352.2,48.665h13.8a2.86,2.86,0,0,0,2.85-2.393,5.61,5.61,0,0,0,.058-1.294,5.531,5.531,0,0,0-10.735-1.428,5.2,5.2,0,0,0-3.975,3.251H352.2a.932.932,0,1,0,0,1.864Zm6.725-3.323a.932.932,0,0,0,.879-.736,3.666,3.666,0,0,1,7.239.5,3.734,3.734,0,0,1-.038.863,1.017,1.017,0,0,1-1.01.828h-9.712A3.334,3.334,0,0,1,358.924,45.342Z" transform="translate(-307.624 -39.851)" fill="#4c77ae"/></g></g></svg>